<?xml version="1.0" encoding="utf-8"?>
<!-- Generator: Adobe Illustrator 25.0.0, SVG Export Plug-In . SVG Version: 6.00 Build 0)  -->
<svg version="1.1" id="Layer_1" xmlns="http://www.w3.org/2000/svg" xmlns:xlink="http://www.w3.org/1999/xlink" x="0px" y="0px"
	 viewBox="0 0 512 335.4" style="enable-background:new 0 0 512 335.4;" xml:space="preserve" height="16" width="25">
<style type="text/css">
	.st0{fill:#FAB446;}
	.st1{fill:#73AF00;}
	.st2{fill:#F5F5F5;}
	.st3{fill:#41479B;}
</style>
<path class="st0" d="M512,111.8H0V8.8C0,4,4,0,8.8,0h494.3c4.9,0,8.8,4,8.8,8.8L512,111.8L512,111.8z"/>
<path class="st1" d="M503.2,335.4H8.8c-4.9,0-8.8-4-8.8-8.8v-103h512v103C512,331.5,508,335.4,503.2,335.4z"/>
<rect y="111.8" class="st2" width="512" height="111.8"/>
<g>
	<path class="st3" d="M256,215.2c-26.2,0-47.4-21.3-47.4-47.4s21.3-47.4,47.4-47.4s47.4,21.3,47.4,47.4S282.2,215.2,256,215.2z
		 M256,129.1c-21.3,0-38.6,17.3-38.6,38.6s17.3,38.6,38.6,38.6s38.6-17.3,38.6-38.6S277.3,129.1,256,129.1z"/>
	<circle class="st3" cx="256" cy="167.7" r="5.4"/>
	<polygon class="st3" points="256,168.5 242.3,169.9 213,168.5 213,166.9 242.3,165.5 256,166.9 	"/>
	<polygon class="st3" points="256,168.5 269.7,169.9 299,168.5 299,166.9 269.7,165.5 256,166.9 	"/>
	<polygon class="st3" points="255.2,167.7 253.8,154.1 255.2,124.7 256.8,124.7 258.2,154.1 256.8,167.7 	"/>
	<polygon class="st3" points="255.2,167.7 253.8,181.4 255.2,210.8 256.8,210.8 258.2,181.4 256.8,167.7 	"/>
	<polygon class="st3" points="255.4,168.3 244.8,159.6 225,137.9 226.1,136.7 247.9,156.5 256.6,167.2 	"/>
	<polygon class="st3" points="255.4,168.3 264.1,178.9 285.9,198.7 287,197.6 267.2,175.8 256.6,167.2 	"/>
	<polygon class="st3" points="255.4,167.2 264.1,156.5 285.9,136.7 287,137.9 267.2,159.6 256.6,168.3 	"/>
	<polygon class="st3" points="255.4,167.2 244.8,175.8 225,197.6 226.1,198.7 247.9,178.9 256.6,168.3 	"/>
	<polygon class="st3" points="256.3,168.5 244.2,175 216.6,184.9 215.9,183.4 242.5,170.9 255.7,167 	"/>
	<polygon class="st3" points="256.3,168.5 269.5,164.5 296.1,152 295.4,150.5 267.8,160.5 255.7,167 	"/>
	<polygon class="st3" points="255.3,168 248.7,155.9 238.8,128.3 240.3,127.7 252.8,154.3 256.7,167.4 	"/>
	<polygon class="st3" points="255.3,168 259.2,181.2 271.7,207.8 273.2,207.2 263.3,179.5 256.7,167.4 	"/>
	<polygon class="st3" points="255.7,168.5 242.5,164.5 215.9,152 216.6,150.5 244.2,160.5 256.3,167 	"/>
	<polygon class="st3" points="255.7,168.5 267.8,175 295.4,184.9 296.1,183.4 269.5,170.9 256.3,167 	"/>
	<polygon class="st3" points="255.3,167.4 259.2,154.3 271.7,127.7 273.2,128.3 263.3,155.9 256.7,168 	"/>
	<polygon class="st3" points="255.3,167.4 248.7,179.5 238.8,207.2 240.3,207.8 252.8,181.2 256.7,168 	"/>
</g>
<circle class="st2" cx="256" cy="167.7" r="7.3"/>
<circle class="st3" cx="256" cy="167.7" r="4.4"/>
</svg>
