<?xml version="1.0" standalone="no"?>
<!DOCTYPE svg PUBLIC "-//W3C//DTD SVG 20010904//EN"
 "http://www.w3.org/TR/2001/REC-SVG-20010904/DTD/svg10.dtd">
<svg version="1.0" xmlns="http://www.w3.org/2000/svg"
 width="30px" height="30px" viewBox="0 0 512.000000 512.000000"
 preserveAspectRatio="xMidYMid meet">

<g transform="translate(0.000000,512.000000) scale(0.100000,-0.100000)"
fill="#ffffff" stroke="none">
<path d="M549 4030 c-70 -37 -119 -115 -119 -190 0 -78 53 -159 125 -191 38
-18 126 -19 2010 -19 l1971 0 44 23 c88 45 136 144 112 235 -16 57 -56 110
-108 139 l-39 23 -1980 -1 c-1927 0 -1981 0 -2016 -19z"/>
<path d="M539 2747 c-24 -13 -57 -43 -74 -66 -27 -39 -30 -50 -30 -121 0 -71
3 -82 30 -121 17 -23 50 -53 74 -66 l44 -23 1977 0 1977 0 44 23 c24 13 58 43
74 66 27 39 30 50 30 121 0 71 -3 82 -30 121 -16 23 -50 53 -74 66 l-44 23
-1977 0 -1977 0 -44 -23z"/>
<path d="M529 1467 c-24 -13 -57 -43 -74 -66 -27 -39 -30 -50 -30 -121 0 -71
3 -82 30 -121 17 -23 50 -53 74 -66 l44 -23 1992 2 1991 3 37 25 c21 14 50 43
65 64 24 35 27 49 27 116 0 67 -3 81 -27 116 -15 21 -44 50 -65 64 l-37 25
-1991 3 -1992 2 -44 -23z"/>
</g>
</svg>
